<svg width="583" height="193" viewBox="0 0 583 193" fill="none" xmlns="http://www.w3.org/2000/svg">
<path d="M50.9932 2.47363C74.3965 2.47363 74.9675 41.099 78.2021 74.3965C78.3924 74.777 78.3926 75.1576 78.3926 75.5381C80.8659 75.5381 83.5296 75.9183 86.0029 76.2988C87.9056 76.8696 88.8574 78.3922 88.8574 79.1533C88.8574 79.9144 88.2863 81.4365 86.1934 81.4365C84.4809 81.4365 82.0072 81.2459 78.9629 81.0557C81.2461 98.7506 86.0029 126.72 90.5693 126.721C94.3047 126.721 96.7921 120.444 98.4023 113.66C97.2801 108.41 95.6563 100.048 95.6562 90.1895V79.9141C95.6564 78.7724 96.2275 77.0606 99.2715 77.0605C102.316 77.0605 107.834 79.344 107.834 82.0078C107.834 86.9552 108.024 100.464 109.355 111.689C110.117 107.122 115.445 74.9678 128.003 74.9678C132.569 74.9681 139.799 79.3444 139.799 91.3311C139.799 96.8491 137.326 108.075 137.326 112.451C138.278 109.978 141.892 96.4683 147.029 96.4678C151.976 96.4678 156.163 101.035 156.163 109.787C156.163 112.831 155.782 121.773 155.782 123.296C155.782 124.818 155.972 130.526 156.924 130.526C160.143 130.526 166.243 119.302 170.684 108.293C170.353 106.151 170.167 103.742 170.167 101.034C170.167 90.189 172.45 85.8125 173.401 84.6709C174.162 83.3392 175.304 82.5782 177.777 82.5781C181.012 82.5781 186.149 84.8612 185.389 86.9541C184.628 89.2373 180.061 103.698 184.628 121.013C186.721 119.49 189.004 112.07 190.906 104.27C192.809 96.2781 195.663 86.5735 196.995 83.3389V82.7686C196.995 80.4855 199.468 80.295 201.181 80.2949C206.508 80.2949 209.363 82.7684 209.743 84.8613C209.933 86.1932 210.885 98.7511 211.646 110.548C216.403 105.03 225.915 97.2305 227.248 96.0879C228.58 95.1366 229.531 96.6578 228.771 97.4189C228.009 98.18 216.212 108.455 211.836 113.782C212.216 119.871 212.407 125.579 212.407 129.004C212.407 148.221 206.128 192.554 188.053 192.555C182.725 192.555 177.017 189.891 177.017 176.953C177.017 156.785 190.335 131.859 200.039 123.106C199.849 112.642 198.517 98.5612 197.756 89.999C196.424 93.4241 194.522 102.177 192.81 108.836C191.097 116.066 189.004 124.818 184.628 124.818C181.478 124.818 174.879 122.771 171.807 113.161C167.196 124.497 161.296 134.142 156.733 134.142C150.264 134.142 143.414 127.863 143.414 117.969C143.414 112.451 144.175 107.123 145.697 101.796C143.224 105.031 141.512 111.88 140.18 116.637C139.038 121.203 138.087 129.765 134.853 129.766C128.383 129.766 124.388 122.915 124.388 117.397C124.388 105.981 128.954 85.0515 128.954 81.2461C128.954 79.5338 128.763 78.582 127.432 78.582C117.728 78.5821 111.639 113.022 110.688 119.491C111.068 121.584 109.736 123.677 107.263 123.677C104.978 123.677 101.436 121.996 99.7529 118.637C98.0227 124.916 95.2368 130.146 90.7598 130.146C72.1133 130.146 68.4986 98.751 66.7861 80.1045C64.3126 79.9142 61.8387 79.7246 59.3652 79.7246C54.7987 79.7246 44.3339 79.9149 33.6787 82.0078C31.015 98.7516 27.9703 132.048 16.3643 132.049C8.18259 132.049 0 117.207 0 101.034C9.1173e-05 90.7597 4.18649 78.963 11.0361 78.9629C17.5049 78.9629 17.6953 89.2364 17.6953 90.5693C17.6953 91.7108 16.1739 91.521 15.9834 90.1895C15.7931 89.0478 15.0315 81.2461 11.7969 81.2461C8.75262 81.2468 4.9473 88.6674 4.94727 101.225C4.94727 113.592 10.8459 129.385 15.793 129.385C24.7357 129.385 28.1604 100.654 30.8242 82.5781C27.78 83.3392 24.7358 84.1006 21.8818 85.2422C20.9305 85.6227 19.9793 83.9097 20.9307 83.3389C23.214 81.8168 27.0195 80.4853 31.3955 79.3438V78.3926C34.2496 61.4584 41.0993 14.0807 53.6572 7.80176C53.0864 6.8504 51.9444 6.46973 50.8027 6.46973C42.8115 6.46988 38.2451 17.3152 38.2451 21.6914C38.2451 22.6425 37.6745 23.0232 37.2939 23.0234C36.7231 23.0234 36.3428 22.2622 36.3428 21.6914C36.3428 14.4611 42.2407 2.47365 50.9932 2.47363ZM200.039 126.341C190.716 135.094 180.822 161.351 180.822 174.67C180.822 183.232 184.247 188.559 185.198 188.56C192.238 188.56 199.849 157.735 200.039 126.341ZM342.334 0C360.6 0 368.402 13.3194 368.782 81.0557C371.256 62.9795 380.008 3.0457 392.565 3.04492C407.216 3.04492 405.694 32.346 405.694 44.7139C405.694 57.0814 405.505 70.5907 406.266 76.4893C407.407 68.4973 411.022 31.9664 426.434 31.9658C441.846 31.9658 442.607 49.6617 443.178 60.8877C443.558 71.9239 441.846 109.597 451.55 126.911C455.864 125.252 460.563 115.422 463.816 107.261C463.313 105.129 463.028 102.685 463.028 99.8926C463.028 92.2818 463.98 83.7196 464.36 82.3877C464.741 81.0559 465.122 79.9141 468.356 79.9141C472.542 79.9142 476.727 82.768 476.728 84.4805C476.728 86.1929 475.396 94.7555 475.396 102.557C475.396 108.645 476.538 117.018 478.631 117.018C482.775 117.017 487.094 108.289 489.61 102.476C488.408 92.8009 486.813 77.3028 486.812 63.9316C486.812 23.5941 497.658 2.28418 509.265 2.28418C514.592 2.28428 520.49 5.3283 520.49 19.2178C520.49 35.3907 510.786 60.5062 499.37 71.542C499.751 85.6221 501.273 99.1318 502.225 107.313C503.747 101.605 511.357 71.9229 525.247 71.9229C531.526 71.9229 535.332 76.8705 535.332 82.0078C535.332 92.8531 518.778 102.557 515.543 104.079C517.826 107.885 522.013 127.673 530.004 127.673C536.595 127.673 541.778 117.131 544.96 108.604C544.378 106.655 544.042 104.456 544.042 101.986C544.042 96.849 544.994 80.4854 556.601 80.4854C562.689 80.4855 568.777 85.2423 568.777 92.2822C568.777 100.083 563.26 108.074 556.029 108.265C556.22 112.45 556.791 117.968 560.405 117.969C568.016 117.969 577.911 102.937 580.194 97.4189C580.765 95.8976 582.858 97.039 582.097 98.9414C581.336 100.844 570.3 121.774 560.977 121.774C557.241 121.774 549.986 119.058 546.304 111.943C542.607 121.462 537.092 131.668 530.004 131.668C513.45 131.668 506.41 109.977 505.078 106.933C504.127 110.167 503.556 113.022 503.176 114.925C503.176 116.828 502.415 120.442 500.132 120.442C494.043 120.442 491.379 116.637 490.618 109.978C490.516 109.285 490.393 108.417 490.253 107.398C487.48 113.48 483.282 120.442 478.631 120.442C474.304 120.442 468.531 118.273 465.36 111.693C462.049 120.916 457.093 130.907 451.169 130.907C435.948 130.907 432.332 104.84 431.571 92.4727C430.62 80.105 432.332 40.9084 426.434 37.6738C418.062 40.5281 413.305 56.3211 411.212 71.1621C409.119 85.8129 409.88 96.2773 405.313 96.2773C394.849 96.277 393.708 82.388 393.327 72.3037C392.947 62.2195 393.517 12.941 391.805 7.99219C379.247 20.3601 370.494 93.804 368.401 110.738C368.211 115.114 368.021 118.92 367.641 121.394C366.88 128.243 364.976 130.526 359.648 130.526C355.463 130.526 354.702 126.15 354.702 124.438C354.702 121.202 355.844 101.985 355.844 70.2109C355.844 9.89495 342.905 4.18652 340.051 4.18652C337.197 4.18654 335.484 6.46961 335.484 9.7041C335.484 20.7398 347.091 28.9217 348.613 29.873C350.135 30.8243 348.423 31.7757 347.281 31.2051C346.14 30.8245 332.44 21.1206 332.44 8.75293C332.44 3.99618 336.245 4.00551e-05 342.334 0ZM278.294 50.0039C283.694 50.0039 290.098 56.1572 290.098 63.4404C290.097 72.6069 283.568 80.8944 277.29 88.6797C280.304 95.5862 284.196 101.865 287.587 106.763C292.233 101.363 295.246 94.331 295.246 87.6758C295.246 86.9223 296.251 87.2991 296.502 87.6758C296.753 88.0527 297.13 89.9363 297.13 91.9453C297.13 98.3493 294.242 105.004 290.224 110.278C293.363 114.422 295.874 117.185 296 117.437C296.627 118.19 295.247 119.194 294.493 118.691C294.366 118.439 291.98 116.053 288.717 112.036C284.071 117.31 278.168 120.826 273.146 120.826C266.239 120.826 258.203 115.176 258.203 106.135C258.203 98.6004 265.486 90.187 272.142 81.5225C270.509 75.8718 269.63 70.0955 269.504 64.3193C269.504 60.6778 271.639 50.0042 278.294 50.0039ZM275.657 90.8145C270.258 97.5952 265.361 104.125 265.36 110.78C265.36 115.175 267.998 115.553 271.263 115.553C276.537 115.553 281.811 112.79 286.08 108.521C281.936 102.995 278.545 96.9675 275.657 90.8145ZM561.357 87.5254C559.264 88.667 556.22 94.9458 556.029 105.981C562.689 104.84 564.02 97.0395 564.021 94.7559C564.021 91.3312 563.07 87.9064 561.357 87.5254ZM527.34 74.9678C518.587 73.4459 511.928 86.3839 507.742 98.1807C510.025 96.6585 529.052 84.6715 527.34 74.9678ZM279.048 54.9014C276.16 54.9014 272.644 58.2916 272.644 69.0908C272.769 72.4812 273.145 75.8719 274.024 79.1367C279.047 72.4814 283.317 65.8257 283.317 59.2959C283.317 57.0357 281.81 54.9014 279.048 54.9014ZM55.1787 9.51367C43.5724 14.8417 36.7226 64.3112 34.249 78.582C45.6651 76.1086 60.1256 75.1573 65.834 75.1572H66.2148C66.2148 74.3963 66.0244 73.8256 66.0244 73.2549C64.5022 59.1748 62.409 20.5494 55.1787 9.51367ZM473.113 59.7461C477.489 59.7463 480.914 63.1707 480.914 67.3564C480.914 71.7325 477.489 75.157 473.113 75.1572C468.927 75.1572 465.312 71.7327 465.312 67.3564C465.312 63.1705 468.927 59.7461 473.113 59.7461ZM511.928 6.46973C507.742 6.47105 499.37 25.8786 499.37 64.6924V68.498C510.596 54.418 516.685 35.2003 516.685 21.3105C516.684 10.8459 512.689 6.46973 511.928 6.46973Z" fill="#B15000"/>
</svg>
